<?xml version="1.0" encoding="UTF-8" standalone="no"?><!DOCTYPE svg PUBLIC "-//W3C//DTD SVG 1.1//EN" "http://www.w3.org/Graphics/SVG/1.1/DTD/svg11.dtd"><svg width="100%" height="100%" viewBox="0 0 64 64" version="1.1" xmlns="http://www.w3.org/2000/svg" xmlns:xlink="http://www.w3.org/1999/xlink" xml:space="preserve" xmlns:serif="http://www.serif.com/" style="fill-rule:evenodd;clip-rule:evenodd;stroke-linejoin:round;stroke-miterlimit:1.41421;"><rect id="Page-2" serif:id="Page 2" x="0" y="0" width="64" height="64" style="fill:none;"/><g id="Layer-1" serif:id="Layer 1"><path d="M64,32c0,17.673 -14.327,32 -32,32c-17.673,0 -32,-14.327 -32,-32c0,-17.673 14.327,-32 32,-32c17.673,0 32,14.327 32,32" style="fill:#4f5d73;fill-rule:nonzero;"/><g><g opacity="0.199997"><path d="M36,23l0,-9l-17,0c-1.657,0 -3,1.343 -3,3l0,34c0,1.657 1.343,3 3,3l26,0c1.657,0 3,-1.343 3,-3l0,-25l-9,0c-1.657,0 -3,-1.343 -3,-3" style="fill:#231f20;fill-rule:nonzero;"/></g></g><path d="M36,21l0,-9l-17,0c-1.657,0 -3,1.343 -3,3l0,34c0,1.657 1.343,3 3,3l26,0c1.657,0 3,-1.343 3,-3l0,-25l-9,0c-1.657,0 -3,-1.343 -3,-3" style="fill:#e0e0d1;fill-rule:nonzero;"/><g><g opacity="0.199997"><path d="M37.016,23.294l10.984,9.706l0,-9l-10.984,-0.706Z" style="fill:#231f20;fill-rule:nonzero;"/></g></g><path d="M36,12l0,9c0,1.657 1.343,3 3,3l9,0l-12,-12Z" style="fill:#fff;fill-rule:nonzero;"/><g><g opacity="0.199997"><rect x="22" y="22" width="9.625" height="2" style="fill:#231f20;"/></g></g><g><g opacity="0.199997"><rect x="22" y="32" width="20" height="2" style="fill:#231f20;"/></g></g><g><g opacity="0.199997"><rect x="22" y="27" width="20" height="2" style="fill:#231f20;"/></g></g><g><g opacity="0.199997"><rect x="22" y="37" width="20" height="2" style="fill:#231f20;"/></g></g><g><g opacity="0.199997"><rect x="22" y="42" width="20" height="2" style="fill:#231f20;"/></g></g></g></svg>